<svg width="146" height="43" viewBox="0 0 146 43" fill="none" xmlns="http://www.w3.org/2000/svg">
<g filter="url(#filter0_dd_2439_86238)">
<g clip-path="url(#clip0_2439_86238)">
<rect x="8" y="4" width="130" height="21" rx="6" fill="white"/>
<rect width="24" height="21" transform="translate(8 4)" fill="#D3FFD2"/>
<path fill-rule="evenodd" clip-rule="evenodd" d="M17.601 7.30005C16.7184 7.30005 16.0029 8.01639 16.0029 8.90005V13.7032L15.2004 13.7032C14.5415 13.7032 14.1658 14.4568 14.5618 14.984L19.3673 21.382C19.6872 21.8079 20.3257 21.8075 20.6451 21.3813L25.4386 14.9832C25.8337 14.4559 25.4579 13.7032 24.7994 13.7032L23.9932 13.7032V8.90005C23.9932 8.01639 23.2777 7.30005 22.3951 7.30005H17.601ZM20.5999 10.3C20.5999 9.96868 20.3313 9.70005 19.9999 9.70005C19.6685 9.70005 19.3999 9.96868 19.3999 10.3V10.7305C19.2464 10.7658 19.1008 10.8142 18.963 10.8758C18.641 11.0179 18.3863 11.2177 18.1988 11.4753C18.0132 11.7328 17.9204 12.033 17.9204 12.3758C17.9204 12.7925 18.0586 13.1268 18.3351 13.3787C18.6135 13.6287 18.9923 13.8152 19.4715 13.9383L20.1334 14.1088C20.3418 14.1618 20.5236 14.2224 20.6789 14.2906C20.8361 14.3569 20.9582 14.4402 21.0454 14.5406C21.1325 14.6391 21.177 14.7641 21.1789 14.9156C21.177 15.0823 21.1268 15.2281 21.0283 15.3531C20.9298 15.4762 20.7935 15.5728 20.6192 15.6429C20.4469 15.711 20.2461 15.7451 20.0169 15.7451C19.7972 15.7451 19.5984 15.712 19.4204 15.6457C19.2442 15.5794 19.1012 15.479 18.9914 15.3446C18.9789 15.3293 18.967 15.3136 18.9558 15.2975C18.7981 15.0712 18.5907 14.8389 18.3149 14.8389C18.0158 14.8389 17.7665 15.0924 17.8548 15.3782C17.9049 15.5405 17.976 15.6884 18.0681 15.8218C18.2556 16.0908 18.515 16.2953 18.8465 16.4355C19.0156 16.5066 19.2001 16.5597 19.3999 16.5947V17.1C19.3999 17.4314 19.6685 17.7 19.9999 17.7C20.3313 17.7 20.5999 17.4314 20.5999 17.1V16.604C20.8269 16.5685 21.0322 16.5105 21.2158 16.4298C21.5454 16.284 21.7972 16.0823 21.9715 15.8247C22.1457 15.5652 22.2329 15.265 22.2329 14.9241C22.2329 14.6722 22.1855 14.4525 22.0908 14.265C21.9961 14.0775 21.8673 13.9175 21.7044 13.7849C21.5435 13.6523 21.3607 13.5425 21.1561 13.4554C20.9535 13.3682 20.7423 13.2991 20.5226 13.248L19.9772 13.1116C19.8579 13.0832 19.7395 13.0482 19.6221 13.0065C19.5046 12.9648 19.3976 12.9137 19.301 12.8531C19.2044 12.7906 19.1277 12.7148 19.0709 12.6258C19.016 12.5368 18.9885 12.4317 18.9885 12.3105C18.9904 12.1646 19.033 12.0349 19.1164 11.9213C19.1997 11.8076 19.32 11.7177 19.4772 11.6514C19.6344 11.5851 19.8228 11.552 20.0425 11.552C20.355 11.552 20.6088 11.6211 20.8039 11.7593C20.8652 11.8024 20.9183 11.8508 20.9631 11.9045C21.1364 12.1123 21.3443 12.3389 21.6148 12.3389C21.9107 12.3389 22.1605 12.0891 22.0581 11.8114C22.0136 11.6906 21.9534 11.5767 21.8777 11.4696C21.6997 11.2158 21.4544 11.0179 21.1419 10.8758C20.9759 10.7989 20.7952 10.7425 20.5999 10.7067V10.3Z" fill="#008737"/>
</g>
<path d="M74.137 29.6356C73.8001 30.0399 73.6316 30.2421 73.44 30.336C73.1624 30.4719 72.8376 30.4719 72.56 30.336C72.3684 30.2421 72.1999 30.0399 71.863 29.6356L68 25L78 25L74.137 29.6356Z" fill="white"/>
</g>
<defs>
<filter id="filter0_dd_2439_86238" x="0" y="0" width="146" height="43" filterUnits="userSpaceOnUse" color-interpolation-filters="sRGB">
<feFlood flood-opacity="0" result="BackgroundImageFix"/>
<feColorMatrix in="SourceAlpha" type="matrix" values="0 0 0 0 0 0 0 0 0 0 0 0 0 0 0 0 0 0 127 0" result="hardAlpha"/>
<feOffset dy="4"/>
<feGaussianBlur stdDeviation="4"/>
<feComposite in2="hardAlpha" operator="out"/>
<feColorMatrix type="matrix" values="0 0 0 0 0 0 0 0 0 0 0 0 0 0 0 0 0 0 0.15 0"/>
<feBlend mode="normal" in2="BackgroundImageFix" result="effect1_dropShadow_2439_86238"/>
<feColorMatrix in="SourceAlpha" type="matrix" values="0 0 0 0 0 0 0 0 0 0 0 0 0 0 0 0 0 0 127 0" result="hardAlpha"/>
<feOffset dy="2"/>
<feGaussianBlur stdDeviation="1"/>
<feComposite in2="hardAlpha" operator="out"/>
<feColorMatrix type="matrix" values="0 0 0 0 0 0 0 0 0 0 0 0 0 0 0 0 0 0 0.1 0"/>
<feBlend mode="normal" in2="effect1_dropShadow_2439_86238" result="effect2_dropShadow_2439_86238"/>
<feBlend mode="normal" in="SourceGraphic" in2="effect2_dropShadow_2439_86238" result="shape"/>
</filter>
<clipPath id="clip0_2439_86238">
<rect x="8" y="4" width="130" height="21" rx="6" fill="white"/>
</clipPath>
</defs>
</svg>
