<svg width="96" height="54" viewBox="0 0 96 54" fill="none" xmlns="http://www.w3.org/2000/svg">
<g filter="url(#filter0_dd_2524_43340)">
<g clip-path="url(#clip0_2524_43340)">
<rect x="8" y="4" width="80" height="33" rx="6" fill="#141D23"/>
<rect width="28" height="33" transform="translate(8 4)" fill="#2B343A"/>
<path fill-rule="evenodd" clip-rule="evenodd" d="M22.0001 22.9C23.3256 22.9 24.4001 21.8254 24.4001 20.5C24.4001 19.1745 23.3256 18.1 22.0001 18.1C20.6746 18.1 19.6001 19.1745 19.6001 20.5C19.6001 21.8254 20.6746 22.9 22.0001 22.9ZM23.2001 20.5C23.2001 21.1627 22.6628 21.7 22.0001 21.7C21.3374 21.7 20.8001 21.1627 20.8001 20.5C20.8001 19.8372 21.3374 19.3 22.0001 19.3C22.6628 19.3 23.2001 19.8372 23.2001 20.5Z" fill="white"/>
<path fill-rule="evenodd" clip-rule="evenodd" d="M22.0002 15.7C20.3998 15.7 18.9684 16.3682 17.8261 17.1451C16.6809 17.924 15.7783 18.8456 15.234 19.4156L15.228 19.4219C14.9562 19.7151 14.8032 20.099 14.8032 20.5C14.8032 20.9009 14.9562 21.2848 15.228 21.578L15.234 21.5843C15.7783 22.1543 16.6809 23.0759 17.8261 23.8548C18.9684 24.6317 20.3998 25.3 22.0002 25.3C23.6005 25.3 25.0328 24.6318 26.1758 23.8549C27.322 23.076 28.2254 22.1545 28.7699 21.5843L28.7759 21.578C29.0478 21.2848 29.2007 20.9009 29.2007 20.5C29.2007 20.099 29.0478 19.7151 28.7759 19.4219L28.7699 19.4156C28.2254 18.8454 27.322 17.9239 26.1758 17.145C25.0328 16.3681 23.6005 15.7 22.0002 15.7ZM16.0032 20.5C16.0032 20.4069 16.0382 20.3144 16.1056 20.2405C16.6404 19.6805 17.469 18.8393 18.501 18.1373C19.5384 17.4317 20.7336 16.9 22.0002 16.9C23.2669 16.9 24.463 17.4318 25.5013 18.1374C26.5342 18.8394 27.3637 19.6807 27.8983 20.2405C27.9658 20.3144 28.0007 20.4069 28.0007 20.5C28.0007 20.593 27.9658 20.6855 27.8983 20.7594C27.3637 21.3192 26.5342 22.1605 25.5013 22.8625C24.463 23.5681 23.2669 24.1 22.0002 24.1C20.7336 24.1 19.5384 23.5682 18.501 22.8626C17.469 22.1606 16.6404 21.3194 16.1056 20.7594C16.0382 20.6855 16.0032 20.593 16.0032 20.5Z" fill="white"/>
</g>
<path d="M49.137 41.6356C48.8001 42.0399 48.6316 42.2421 48.44 42.336C48.1624 42.4719 47.8376 42.4719 47.56 42.336C47.3684 42.2421 47.1999 42.0399 46.863 41.6356L43 37L53 37L49.137 41.6356Z" fill="#141D23"/>
</g>
<defs>
<filter id="filter0_dd_2524_43340" x="0.727273" y="0.363636" width="94.5455" height="53.5455" filterUnits="userSpaceOnUse" color-interpolation-filters="sRGB">
<feFlood flood-opacity="0" result="BackgroundImageFix"/>
<feColorMatrix in="SourceAlpha" type="matrix" values="0 0 0 0 0 0 0 0 0 0 0 0 0 0 0 0 0 0 127 0" result="hardAlpha"/>
<feOffset dy="3.63636"/>
<feGaussianBlur stdDeviation="3.63636"/>
<feComposite in2="hardAlpha" operator="out"/>
<feColorMatrix type="matrix" values="0 0 0 0 0 0 0 0 0 0 0 0 0 0 0 0 0 0 0.15 0"/>
<feBlend mode="normal" in2="BackgroundImageFix" result="effect1_dropShadow_2524_43340"/>
<feColorMatrix in="SourceAlpha" type="matrix" values="0 0 0 0 0 0 0 0 0 0 0 0 0 0 0 0 0 0 127 0" result="hardAlpha"/>
<feOffset dy="1.81818"/>
<feGaussianBlur stdDeviation="0.909091"/>
<feComposite in2="hardAlpha" operator="out"/>
<feColorMatrix type="matrix" values="0 0 0 0 0 0 0 0 0 0 0 0 0 0 0 0 0 0 0.1 0"/>
<feBlend mode="normal" in2="effect1_dropShadow_2524_43340" result="effect2_dropShadow_2524_43340"/>
<feBlend mode="normal" in="SourceGraphic" in2="effect2_dropShadow_2524_43340" result="shape"/>
</filter>
<clipPath id="clip0_2524_43340">
<rect x="8" y="4" width="80" height="33" rx="6" fill="white"/>
</clipPath>
</defs>
</svg>
