<svg width="126" height="43" viewBox="0 0 126 43" fill="none" xmlns="http://www.w3.org/2000/svg">
<g filter="url(#filter0_dd_2439_86236)">
<g clip-path="url(#clip0_2439_86236)">
<rect x="8" y="4" width="110" height="21" rx="6" fill="white"/>
<rect width="20" height="21" transform="translate(8 4)" fill="#D3FFD2"/>
<path fill-rule="evenodd" clip-rule="evenodd" d="M15.601 7.30005C14.7184 7.30005 14.0029 8.01639 14.0029 8.90005V13.7032L13.2004 13.7032C12.5415 13.7032 12.1658 14.4568 12.5618 14.984L17.3673 21.382C17.6872 21.8079 18.3257 21.8075 18.6451 21.3813L23.4386 14.9832C23.8337 14.4559 23.4579 13.7032 22.7994 13.7032L21.9932 13.7032V8.90005C21.9932 8.01639 21.2777 7.30005 20.3951 7.30005H15.601ZM18.5999 10.3C18.5999 9.96868 18.3313 9.70005 17.9999 9.70005C17.6685 9.70005 17.3999 9.96868 17.3999 10.3V10.7305C17.2464 10.7658 17.1008 10.8142 16.963 10.8758C16.641 11.0179 16.3863 11.2177 16.1988 11.4753C16.0132 11.7328 15.9204 12.033 15.9204 12.3758C15.9204 12.7925 16.0586 13.1268 16.3351 13.3787C16.6135 13.6287 16.9923 13.8152 17.4715 13.9383L18.1334 14.1088C18.3418 14.1618 18.5236 14.2224 18.6789 14.2906C18.8361 14.3569 18.9582 14.4402 19.0454 14.5406C19.1325 14.6391 19.177 14.7641 19.1789 14.9156C19.177 15.0823 19.1268 15.2281 19.0283 15.3531C18.9298 15.4762 18.7935 15.5728 18.6192 15.6429C18.4469 15.711 18.2461 15.7451 18.0169 15.7451C17.7972 15.7451 17.5984 15.712 17.4204 15.6457C17.2442 15.5794 17.1012 15.479 16.9914 15.3446C16.9789 15.3293 16.967 15.3136 16.9558 15.2975C16.7981 15.0712 16.5907 14.8389 16.3149 14.8389C16.0158 14.8389 15.7665 15.0924 15.8548 15.3782C15.9049 15.5405 15.976 15.6884 16.0681 15.8218C16.2556 16.0908 16.515 16.2953 16.8465 16.4355C17.0156 16.5066 17.2001 16.5597 17.3999 16.5947V17.1C17.3999 17.4314 17.6685 17.7 17.9999 17.7C18.3313 17.7 18.5999 17.4314 18.5999 17.1V16.604C18.8269 16.5685 19.0322 16.5105 19.2158 16.4298C19.5454 16.284 19.7972 16.0823 19.9715 15.8247C20.1457 15.5652 20.2329 15.265 20.2329 14.9241C20.2329 14.6722 20.1855 14.4525 20.0908 14.265C19.9961 14.0775 19.8673 13.9175 19.7044 13.7849C19.5435 13.6523 19.3607 13.5425 19.1561 13.4554C18.9535 13.3682 18.7423 13.2991 18.5226 13.248L17.9772 13.1116C17.8579 13.0832 17.7395 13.0482 17.6221 13.0065C17.5046 12.9648 17.3976 12.9137 17.301 12.8531C17.2044 12.7906 17.1277 12.7148 17.0709 12.6258C17.016 12.5368 16.9885 12.4317 16.9885 12.3105C16.9904 12.1646 17.033 12.0349 17.1164 11.9213C17.1997 11.8076 17.32 11.7177 17.4772 11.6514C17.6344 11.5851 17.8228 11.552 18.0425 11.552C18.355 11.552 18.6088 11.6211 18.8039 11.7593C18.8652 11.8024 18.9183 11.8508 18.9631 11.9045C19.1364 12.1123 19.3443 12.3389 19.6148 12.3389C19.9107 12.3389 20.1605 12.0891 20.0581 11.8114C20.0136 11.6906 19.9534 11.5767 19.8777 11.4696C19.6997 11.2158 19.4544 11.0179 19.1419 10.8758C18.9759 10.7989 18.7952 10.7425 18.5999 10.7067V10.3Z" fill="#008737"/>
</g>
<path d="M64.137 29.6356C63.8001 30.0399 63.6316 30.2421 63.44 30.336C63.1624 30.4719 62.8376 30.4719 62.56 30.336C62.3684 30.2421 62.1999 30.0399 61.863 29.6356L58 25L68 25L64.137 29.6356Z" fill="white"/>
</g>
<defs>
<filter id="filter0_dd_2439_86236" x="0" y="0" width="126" height="43" filterUnits="userSpaceOnUse" color-interpolation-filters="sRGB">
<feFlood flood-opacity="0" result="BackgroundImageFix"/>
<feColorMatrix in="SourceAlpha" type="matrix" values="0 0 0 0 0 0 0 0 0 0 0 0 0 0 0 0 0 0 127 0" result="hardAlpha"/>
<feOffset dy="4"/>
<feGaussianBlur stdDeviation="4"/>
<feComposite in2="hardAlpha" operator="out"/>
<feColorMatrix type="matrix" values="0 0 0 0 0 0 0 0 0 0 0 0 0 0 0 0 0 0 0.15 0"/>
<feBlend mode="normal" in2="BackgroundImageFix" result="effect1_dropShadow_2439_86236"/>
<feColorMatrix in="SourceAlpha" type="matrix" values="0 0 0 0 0 0 0 0 0 0 0 0 0 0 0 0 0 0 127 0" result="hardAlpha"/>
<feOffset dy="2"/>
<feGaussianBlur stdDeviation="1"/>
<feComposite in2="hardAlpha" operator="out"/>
<feColorMatrix type="matrix" values="0 0 0 0 0 0 0 0 0 0 0 0 0 0 0 0 0 0 0.1 0"/>
<feBlend mode="normal" in2="effect1_dropShadow_2439_86236" result="effect2_dropShadow_2439_86236"/>
<feBlend mode="normal" in="SourceGraphic" in2="effect2_dropShadow_2439_86236" result="shape"/>
</filter>
<clipPath id="clip0_2439_86236">
<rect x="8" y="4" width="110" height="21" rx="6" fill="white"/>
</clipPath>
</defs>
</svg>
