<svg width="30" height="32" viewBox="0 0 30 32" fill="none" xmlns="http://www.w3.org/2000/svg">
<path fill-rule="evenodd" clip-rule="evenodd" d="M7.66797 10V7C7.66797 3.13401 10.802 0 14.668 0C18.534 0 21.668 3.13401 21.668 7V10H27.5185L29.311 27.0289C29.5907 29.6859 27.5074 32 24.8358 32H4.50048C1.82883 32 -0.254474 29.6859 0.0252079 27.0289L1.81773 10H7.66797ZM10.668 7C10.668 4.79086 12.4588 3 14.668 3C16.8771 3 18.668 4.79086 18.668 7V10H10.668V7ZM7.16813 16.5001C7.16813 15.3955 8.06356 14.5001 9.16813 14.5001C10.2727 14.5001 11.1681 15.3955 11.1681 16.5001C11.1681 17.6047 10.2727 18.5001 9.16813 18.5001C8.06356 18.5001 7.16813 17.6046 7.16813 16.5001ZM18.1681 16.5001C18.1681 15.3955 19.0636 14.5001 20.1681 14.5001C21.2727 14.5001 22.1681 15.3955 22.1681 16.5001C22.1681 17.6046 21.2727 18.5001 20.1681 18.5001C19.0636 18.5001 18.1681 17.6046 18.1681 16.5001Z" fill="white"/>
</svg>
