<svg width="32" height="32" viewBox="0 0 32 32" fill="none" xmlns="http://www.w3.org/2000/svg">
<path d="M10 3.5V7L18 7L17.4479 12.4171C15.9909 12.7708 14.6556 13.3406 13.5266 14.0933C11.5404 15.4174 10 17.4664 10 20V20.5351C8.8044 21.2268 8 22.5194 8 24C8 25.4806 8.8044 26.7733 10 27.4649V29C10 30.1256 10.3719 31.1643 10.9996 32H5.64835C4.13538 32 2.85917 30.8734 2.67151 29.3721L0 7L7 7V3.5C7 1.567 8.567 0 10.5 0H15V3H10.5C10.2239 3 10 3.22386 10 3.5Z" fill="white"/>
<path d="M21 14C16.0294 14 12 16.6863 12 20H30C30 16.6863 25.9706 14 21 14Z" fill="white"/>
<path d="M12 29V28H30V29C30 30.6569 28.6569 32 27 32H15C13.3431 32 12 30.6569 12 29Z" fill="white"/>
<path d="M32 24C32 22.8954 31.1046 22 30 22H12C10.8954 22 10 22.8954 10 24C10 25.1046 10.8954 26 12 26H30C31.1046 26 32 25.1046 32 24Z" fill="white"/>
</svg>
