<svg width="136" height="54" viewBox="0 0 136 54" fill="none" xmlns="http://www.w3.org/2000/svg">
<g filter="url(#filter0_dd_2367_70667)">
<g clip-path="url(#clip0_2367_70667)">
<rect x="8" y="4" width="120" height="33" rx="6" fill="#141D23"/>
<rect width="28" height="33" transform="translate(8 4)" fill="#2B343A"/>
<path fill-rule="evenodd" clip-rule="evenodd" d="M19.601 13.3C18.7184 13.3 18.0029 14.0164 18.0029 14.9V19.7032L17.2004 19.7032C16.5415 19.7032 16.1658 20.4568 16.5618 20.984L21.3673 27.382C21.6872 27.8079 22.3257 27.8075 22.6451 27.3813L27.4386 20.9832C27.8337 20.4559 27.4579 19.7032 26.7994 19.7032L25.9932 19.7032V14.9C25.9932 14.0164 25.2777 13.3 24.3951 13.3H19.601ZM22.5999 16.3C22.5999 15.9687 22.3313 15.7 21.9999 15.7C21.6685 15.7 21.3999 15.9687 21.3999 16.3V16.7305C21.2464 16.7658 21.1008 16.8142 20.963 16.8758C20.641 17.0179 20.3863 17.2177 20.1988 17.4753C20.0132 17.7328 19.9204 18.033 19.9204 18.3758C19.9204 18.7925 20.0586 19.1268 20.3351 19.3787C20.6135 19.6287 20.9923 19.8152 21.4715 19.9383L22.1334 20.1088C22.3418 20.1618 22.5236 20.2224 22.6789 20.2906C22.8361 20.3569 22.9582 20.4402 23.0454 20.5406C23.1325 20.6391 23.177 20.7641 23.1789 20.9156C23.177 21.0823 23.1268 21.2281 23.0283 21.3531C22.9298 21.4762 22.7935 21.5728 22.6192 21.6429C22.4469 21.711 22.2461 21.7451 22.0169 21.7451C21.7972 21.7451 21.5984 21.712 21.4204 21.6457C21.2442 21.5794 21.1012 21.479 20.9914 21.3446C20.9789 21.3293 20.967 21.3136 20.9558 21.2975C20.7981 21.0712 20.5907 20.8389 20.3149 20.8389C20.0158 20.8389 19.7665 21.0924 19.8548 21.3782C19.9049 21.5405 19.976 21.6884 20.0681 21.8218C20.2556 22.0908 20.515 22.2953 20.8465 22.4355C21.0156 22.5066 21.2001 22.5597 21.3999 22.5947V23.1C21.3999 23.4314 21.6685 23.7 21.9999 23.7C22.3313 23.7 22.5999 23.4314 22.5999 23.1V22.604C22.8269 22.5685 23.0322 22.5105 23.2158 22.4298C23.5454 22.284 23.7972 22.0823 23.9715 21.8247C24.1457 21.5652 24.2329 21.265 24.2329 20.9241C24.2329 20.6722 24.1855 20.4525 24.0908 20.265C23.9961 20.0775 23.8673 19.9175 23.7044 19.7849C23.5435 19.6523 23.3607 19.5425 23.1561 19.4554C22.9535 19.3682 22.7423 19.2991 22.5226 19.248L21.9772 19.1116C21.8579 19.0832 21.7395 19.0482 21.6221 19.0065C21.5046 18.9648 21.3976 18.9137 21.301 18.8531C21.2044 18.7906 21.1277 18.7148 21.0709 18.6258C21.016 18.5368 20.9885 18.4317 20.9885 18.3105C20.9904 18.1646 21.033 18.0349 21.1164 17.9213C21.1997 17.8076 21.32 17.7177 21.4772 17.6514C21.6344 17.5851 21.8228 17.552 22.0425 17.552C22.355 17.552 22.6088 17.6211 22.8039 17.7593C22.8652 17.8024 22.9183 17.8508 22.9631 17.9045C23.1364 18.1123 23.3443 18.3389 23.6148 18.3389C23.9107 18.3389 24.1605 18.0891 24.0581 17.8114C24.0136 17.6906 23.9534 17.5767 23.8777 17.4696C23.6997 17.2158 23.4544 17.0179 23.1419 16.8758C22.9759 16.7989 22.7952 16.7425 22.5999 16.7067V16.3Z" fill="white"/>
</g>
<path d="M69.137 41.6356C68.8001 42.0399 68.6316 42.2421 68.44 42.336C68.1624 42.4719 67.8376 42.4719 67.56 42.336C67.3684 42.2421 67.1999 42.0399 66.863 41.6356L63 37L73 37L69.137 41.6356Z" fill="#141D23"/>
</g>
<defs>
<filter id="filter0_dd_2367_70667" x="0.727273" y="0.363636" width="134.545" height="53.5455" filterUnits="userSpaceOnUse" color-interpolation-filters="sRGB">
<feFlood flood-opacity="0" result="BackgroundImageFix"/>
<feColorMatrix in="SourceAlpha" type="matrix" values="0 0 0 0 0 0 0 0 0 0 0 0 0 0 0 0 0 0 127 0" result="hardAlpha"/>
<feOffset dy="3.63636"/>
<feGaussianBlur stdDeviation="3.63636"/>
<feComposite in2="hardAlpha" operator="out"/>
<feColorMatrix type="matrix" values="0 0 0 0 0 0 0 0 0 0 0 0 0 0 0 0 0 0 0.15 0"/>
<feBlend mode="normal" in2="BackgroundImageFix" result="effect1_dropShadow_2367_70667"/>
<feColorMatrix in="SourceAlpha" type="matrix" values="0 0 0 0 0 0 0 0 0 0 0 0 0 0 0 0 0 0 127 0" result="hardAlpha"/>
<feOffset dy="1.81818"/>
<feGaussianBlur stdDeviation="0.909091"/>
<feComposite in2="hardAlpha" operator="out"/>
<feColorMatrix type="matrix" values="0 0 0 0 0 0 0 0 0 0 0 0 0 0 0 0 0 0 0.1 0"/>
<feBlend mode="normal" in2="effect1_dropShadow_2367_70667" result="effect2_dropShadow_2367_70667"/>
<feBlend mode="normal" in="SourceGraphic" in2="effect2_dropShadow_2367_70667" result="shape"/>
</filter>
<clipPath id="clip0_2367_70667">
<rect x="8" y="4" width="120" height="33" rx="6" fill="white"/>
</clipPath>
</defs>
</svg>
