<svg width="30" height="32" viewBox="0 0 30 32" fill="none" xmlns="http://www.w3.org/2000/svg">
<path d="M6 6C7.65685 6 9 4.65685 9 3C9 1.34315 7.65685 0 6 0C4.34315 0 3 1.34315 3 3C3 4.65685 4.34315 6 6 6Z" fill="black" fill-opacity="0.5"/>
<path fill-rule="evenodd" clip-rule="evenodd" d="M2.95293 8C1.92543 8 1.06509 8.77859 0.962854 9.80099L0.0628548 18.801C-0.054882 19.9784 0.869681 21 2.05293 21H3V30C3 31.1046 3.89543 32 5 32H7C8.10457 32 9 31.1046 9 30V21H9.94794C11.1312 21 12.0558 19.9784 11.938 18.801L11.038 9.80099C10.9358 8.77859 10.0754 8 9.04794 8H2.95293Z" fill="black" fill-opacity="0.5"/>
<path fill-rule="evenodd" clip-rule="evenodd" d="M27.7154 25H26V30C26 31.1046 25.1046 32 24 32H22C20.8954 32 20 31.1046 20 30V25H18.2856C16.8223 25 15.8544 23.4802 16.4732 22.1542L19.4227 15.8339L18.1802 10.4497C17.891 9.19649 18.8428 8 20.129 8H25.872C27.1581 8 28.11 9.19649 27.8207 10.4497L26.5783 15.8339L29.5278 22.1542C30.1465 23.4802 29.1786 25 27.7154 25Z" fill="black" fill-opacity="0.5"/>
<path d="M23 6C24.6569 6 26 4.65685 26 3C26 1.34315 24.6569 0 23 0C21.3431 0 20 1.34315 20 3C20 4.65685 21.3431 6 23 6Z" fill="black" fill-opacity="0.5"/>
</svg>
