<svg width="32" height="32" viewBox="0 0 32 32" fill="none" xmlns="http://www.w3.org/2000/svg">
<path fill-rule="evenodd" clip-rule="evenodd" d="M16 3.19995C14.3027 3.19995 12.6748 3.87424 11.4746 5.07447C10.2743 6.2747 9.60004 7.90257 9.60004 9.59995V11.2H8.00004C7.60615 11.1999 7.22609 11.3452 6.93263 11.6079C6.63918 11.8707 6.45296 12.2325 6.40964 12.624L4.80964 27.024C4.78489 27.2476 4.80758 27.4739 4.87622 27.6881C4.94486 27.9024 5.05791 28.0997 5.20799 28.2673C5.35807 28.4349 5.54181 28.569 5.74721 28.6608C5.95261 28.7525 6.17506 28.8 6.40004 28.8H25.6C25.825 28.8 26.0475 28.7525 26.2529 28.6608C26.4583 28.569 26.642 28.4349 26.7921 28.2673C26.9422 28.0997 27.0552 27.9024 27.1239 27.6881C27.1925 27.4739 27.2152 27.2476 27.1904 27.024L25.5904 12.624C25.5471 12.2325 25.3609 11.8707 25.0674 11.6079C24.774 11.3452 24.3939 11.1999 24 11.2H22.4V9.59995C22.4 7.90257 21.7258 6.2747 20.5255 5.07447C19.3253 3.87424 17.6974 3.19995 16 3.19995ZM19.2 11.2V9.59995C19.2 8.75126 18.8629 7.93733 18.2628 7.33721C17.6627 6.73709 16.8487 6.39995 16 6.39995C15.1513 6.39995 14.3374 6.73709 13.7373 7.33721C13.1372 7.93733 12.8 8.75126 12.8 9.59995V11.2H19.2ZM9.60004 16C9.60004 15.5756 9.76861 15.1686 10.0687 14.8686C10.3687 14.5685 10.7757 14.4 11.2 14.4C11.6244 14.4 12.0313 14.5685 12.3314 14.8686C12.6315 15.1686 12.8 15.5756 12.8 16C12.8 16.4243 12.6315 16.8313 12.3314 17.1313C12.0313 17.4314 11.6244 17.6 11.2 17.6C10.7757 17.6 10.3687 17.4314 10.0687 17.1313C9.76861 16.8313 9.60004 16.4243 9.60004 16ZM20.8 14.4C20.3757 14.4 19.9687 14.5685 19.6687 14.8686C19.3686 15.1686 19.2 15.5756 19.2 16C19.2 16.4243 19.3686 16.8313 19.6687 17.1313C19.9687 17.4314 20.3757 17.6 20.8 17.6C21.2244 17.6 21.6313 17.4314 21.9314 17.1313C22.2315 16.8313 22.4 16.4243 22.4 16C22.4 15.5756 22.2315 15.1686 21.9314 14.8686C21.6313 14.5685 21.2244 14.4 20.8 14.4Z" fill="#7B7B7B"/>
</svg>
